<svg width="41" height="10" viewBox="0 0 41 10" fill="none" xmlns="http://www.w3.org/2000/svg">
<path d="M2.784 9V1.908H0.324V0.599999H6.84V1.908H4.392V9H2.784ZM10.4002 9L7.34016 0.599999H9.06816L11.3962 7.344L13.7362 0.599999H15.4522L12.3922 9H10.4002Z" fill="currentColor"/>
<path d="M16.4248 9V0.36H18.0448V9H16.4248ZM22.48 9.144C21.904 9.144 21.384 9.012 20.92 8.748C20.464 8.476 20.1 8.104 19.828 7.632C19.564 7.152 19.432 6.604 19.432 5.988C19.432 5.356 19.564 4.804 19.828 4.332C20.1 3.852 20.468 3.48 20.932 3.216C21.396 2.944 21.916 2.808 22.492 2.808C23.076 2.808 23.596 2.944 24.052 3.216C24.516 3.48 24.88 3.852 25.144 4.332C25.416 4.804 25.552 5.352 25.552 5.976C25.552 6.6 25.416 7.152 25.144 7.632C24.88 8.104 24.516 8.476 24.052 8.748C23.588 9.012 23.064 9.144 22.48 9.144ZM22.48 7.74C22.752 7.74 22.992 7.676 23.2 7.548C23.416 7.42 23.584 7.224 23.704 6.96C23.832 6.696 23.896 6.368 23.896 5.976C23.896 5.584 23.832 5.26 23.704 5.004C23.584 4.74 23.416 4.544 23.2 4.416C22.992 4.28 22.756 4.212 22.492 4.212C22.236 4.212 22 4.28 21.784 4.416C21.568 4.544 21.396 4.74 21.268 5.004C21.148 5.26 21.088 5.584 21.088 5.976C21.088 6.368 21.148 6.696 21.268 6.96C21.396 7.224 21.564 7.42 21.772 7.548C21.988 7.676 22.224 7.74 22.48 7.74ZM29.8763 9.144C29.2683 9.144 28.7283 9.008 28.2563 8.736C27.7843 8.464 27.4163 8.092 27.1523 7.62C26.8883 7.148 26.7563 6.608 26.7563 6C26.7563 5.376 26.8883 4.828 27.1523 4.356C27.4163 3.876 27.7843 3.5 28.2563 3.228C28.7283 2.948 29.2683 2.808 29.8763 2.808C30.6523 2.808 31.3043 3.012 31.8323 3.42C32.3603 3.828 32.6963 4.388 32.8403 5.1H31.1243C31.0523 4.82 30.9003 4.6 30.6683 4.44C30.4443 4.28 30.1763 4.2 29.8643 4.2C29.5843 4.2 29.3323 4.272 29.1083 4.416C28.8923 4.552 28.7203 4.756 28.5923 5.028C28.4723 5.292 28.4123 5.608 28.4123 5.976C28.4123 6.256 28.4483 6.508 28.5203 6.732C28.5923 6.948 28.6923 7.136 28.8203 7.296C28.9483 7.448 29.1003 7.564 29.2763 7.644C29.4603 7.724 29.6563 7.764 29.8643 7.764C30.0723 7.764 30.2603 7.728 30.4283 7.656C30.6043 7.584 30.7523 7.484 30.8723 7.356C30.9923 7.22 31.0763 7.056 31.1243 6.864H32.8403C32.6963 7.56 32.3563 8.116 31.8203 8.532C31.2923 8.94 30.6443 9.144 29.8763 9.144ZM37.0933 9.144C36.5173 9.144 35.9973 9.012 35.5333 8.748C35.0773 8.476 34.7133 8.104 34.4413 7.632C34.1773 7.152 34.0453 6.604 34.0453 5.988C34.0453 5.356 34.1773 4.804 34.4413 4.332C34.7133 3.852 35.0813 3.48 35.5453 3.216C36.0093 2.944 36.5293 2.808 37.1053 2.808C37.6893 2.808 38.2093 2.944 38.6653 3.216C39.1293 3.48 39.4933 3.852 39.7573 4.332C40.0293 4.804 40.1653 5.352 40.1653 5.976C40.1653 6.6 40.0293 7.152 39.7573 7.632C39.4933 8.104 39.1293 8.476 38.6653 8.748C38.2013 9.012 37.6773 9.144 37.0933 9.144ZM37.0933 7.74C37.3653 7.74 37.6053 7.676 37.8133 7.548C38.0293 7.42 38.1973 7.224 38.3173 6.96C38.4453 6.696 38.5093 6.368 38.5093 5.976C38.5093 5.584 38.4453 5.26 38.3173 5.004C38.1973 4.74 38.0293 4.544 37.8133 4.416C37.6053 4.28 37.3693 4.212 37.1053 4.212C36.8493 4.212 36.6133 4.28 36.3973 4.416C36.1813 4.544 36.0093 4.74 35.8813 5.004C35.7613 5.26 35.7013 5.584 35.7013 5.976C35.7013 6.368 35.7613 6.696 35.8813 6.96C36.0093 7.224 36.1773 7.42 36.3853 7.548C36.6013 7.676 36.8373 7.74 37.0933 7.74Z" fill="#DD2121"/>
</svg>
